720 On ch=1 n=59 v=100
960 Off ch=1 n=59 v=127
960 On ch=1 n=64 v=100
1200 Off ch=1 n=64 v=127
1200 On ch=1 n=63 v=100
1320 Off ch=1 n=63 v=127
1320 On ch=1 n=64 v=100
1440 Off ch=1 n=64 v=127
1440 On ch=1 n=66 v=100
2040 Off ch=1 n=66 v=127
2040 On ch=1 n=68 v=100
2160 Off ch=1 n=68 v=127
2160 On ch=1 n=68 v=100
2280 Off ch=1 n=68 v=127
2280 On ch=1 n=66 v=100
2400 Off ch=1 n=66 v=127
2400 On ch=1 n=68 v=100
3000 Off ch=1 n=68 v=127
3000 On ch=1 n=69 v=100
3120 Off ch=1 n=69 v=127
3120 On ch=1 n=69 v=100
3240 Off ch=1 n=69 v=127
3240 On ch=1 n=68 v=100
3360 Off ch=1 n=68 v=127
3360 On ch=1 n=73 v=100
3720 Off ch=1 n=73 v=127
3720 On ch=1 n=71 v=100
3840 Off ch=1 n=71 v=127
3840 On ch=1 n=69 v=100
3960 Off ch=1 n=69 v=127
3960 On ch=1 n=68 v=100
4080 Off ch=1 n=68 v=127
4080 On ch=1 n=63 v=100
4200 Off ch=1 n=63 v=127
4200 On ch=1 n=64 v=100
4320 Off ch=1 n=64 v=127
4320 On ch=1 n=66 v=100
4920 Off ch=1 n=66 v=127
4920 On ch=1 n=68 v=100
5040 Off ch=1 n=68 v=127
5040 On ch=1 n=68 v=100
5160 Off ch=1 n=68 v=127
5160 On ch=1 n=66 v=100
5280 Off ch=1 n=66 v=127
5280 On ch=1 n=64 v=100
5760 Off ch=1 n=64 v=127
