720 On ch=1 n=59 v=100
959 Off ch=1 n=59 v=0
960 On ch=1 n=64 v=100
1199 Off ch=1 n=64 v=0
1200 On ch=1 n=63 v=100
1319 Off ch=1 n=63 v=0
1320 On ch=1 n=64 v=100
1439 Off ch=1 n=64 v=0
1440 On ch=1 n=66 v=100
1919 Off ch=1 n=66 v=0
1920 On ch=1 n=66 v=100
2039 Off ch=1 n=66 v=0
2040 On ch=1 n=68 v=100
2159 Off ch=1 n=68 v=0
2160 On ch=1 n=68 v=100
2279 Off ch=1 n=68 v=0
2280 On ch=1 n=66 v=100
2399 Off ch=1 n=66 v=0
2400 On ch=1 n=68 v=100
2879 Off ch=1 n=68 v=0
2880 On ch=1 n=68 v=100
2999 Off ch=1 n=68 v=0
3000 On ch=1 n=69 v=100
3119 Off ch=1 n=69 v=0
3120 On ch=1 n=69 v=100
3239 Off ch=1 n=69 v=0
3240 On ch=1 n=68 v=100
3359 Off ch=1 n=68 v=0
3360 On ch=1 n=73 v=80
3719 Off ch=1 n=73 v=0
3720 On ch=1 n=71 v=100
3839 Off ch=1 n=71 v=0
3840 On ch=1 n=69 v=100
3959 Off ch=1 n=69 v=0
3960 On ch=1 n=68 v=100
4079 Off ch=1 n=68 v=0
4080 On ch=1 n=63 v=100
4199 Off ch=1 n=63 v=0
4200 On ch=1 n=64 v=100
4319 Off ch=1 n=64 v=0
4320 On ch=1 n=66 v=100
4799 Off ch=1 n=66 v=0
4800 On ch=1 n=66 v=100
4919 Off ch=1 n=66 v=0
4920 On ch=1 n=68 v=100
5039 Off ch=1 n=68 v=0
5040 On ch=1 n=68 v=100
5159 Off ch=1 n=68 v=0
5160 On ch=1 n=66 v=100
5279 Off ch=1 n=66 v=0
5280 On ch=1 n=64 v=100
5759 Off ch=1 n=64 v=0