0 On ch=1 n=66 v=64
159 Off ch=1 n=66 v=0
159 On ch=1 n=68 v=65
199 Off ch=1 n=68 v=0
199 On ch=1 n=66 v=68
239 Off ch=1 n=66 v=0
239 On ch=1 n=65 v=70
299 Off ch=1 n=65 v=0
299 On ch=1 n=66 v=74
359 Off ch=1 n=66 v=0
359 On ch=1 n=68 v=77
449 Off ch=1 n=68 v=0
449 On ch=1 n=62 v=82
479 Off ch=1 n=62 v=0
479 On ch=1 n=61 v=76
524 Off ch=1 n=61 v=0
569 On ch=1 n=66 v=76
599 Off ch=1 n=66 v=0
599 On ch=1 n=69 v=76
689 Off ch=1 n=69 v=0
719 On ch=1 n=69 v=96
879 Off ch=1 n=69 v=0
879 On ch=1 n=71 v=78
919 Off ch=1 n=71 v=0
919 On ch=1 n=69 v=78
959 Off ch=1 n=69 v=0
959 On ch=1 n=68 v=79
1019 Off ch=1 n=68 v=0
1019 On ch=1 n=69 v=79
1079 Off ch=1 n=69 v=0
1079 On ch=1 n=71 v=80
1169 Off ch=1 n=71 v=0
1169 On ch=1 n=66 v=81
1199 Off ch=1 n=66 v=0
1199 On ch=1 n=64 v=81
1244 Off ch=1 n=64 v=0
1289 On ch=1 n=69 v=82
1319 Off ch=1 n=69 v=0
1319 On ch=1 n=73 v=83
1409 Off ch=1 n=73 v=0
1439 On ch=1 n=73 v=104
1595 Off ch=1 n=73 v=0
1599 On ch=1 n=75 v=84
1635 Off ch=1 n=75 v=0
1639 On ch=1 n=73 v=85
1675 Off ch=1 n=73 v=0
1679 On ch=1 n=72 v=83
1733 Off ch=1 n=72 v=0
1769 On ch=1 n=68 v=79
1799 Off ch=1 n=68 v=0
1799 On ch=1 n=71 v=98
1973 Off ch=1 n=71 v=0
1979 On ch=1 n=73 v=70
2033 Off ch=1 n=73 v=0
2039 On ch=1 n=71 v=67
2093 Off ch=1 n=71 v=0
2099 On ch=1 n=70 v=65
2153 Off ch=1 n=70 v=0
2189 On ch=1 n=66 v=64
2219 Off ch=1 n=66 v=0
2219 On ch=1 n=69 v=84
2315 Off ch=1 n=69 v=0
2319 On ch=1 n=71 v=64
2355 Off ch=1 n=71 v=0
2359 On ch=1 n=69 v=64
2395 Off ch=1 n=69 v=0
2399 On ch=1 n=68 v=64
2453 Off ch=1 n=68 v=0
2489 On ch=1 n=64 v=64
2519 Off ch=1 n=64 v=0
2519 On ch=1 n=67 v=84
2679 Off ch=1 n=67 v=0
2679 On ch=1 n=69 v=64
2719 Off ch=1 n=69 v=0
2719 On ch=1 n=67 v=64
2759 Off ch=1 n=67 v=0
2759 On ch=1 n=66 v=63
2819 Off ch=1 n=66 v=0
2819 On ch=1 n=62 v=64
2879 Off ch=1 n=62 v=0
2879 On ch=1 n=66 v=66
3039 Off ch=1 n=66 v=0
3039 On ch=1 n=68 v=69
3079 Off ch=1 n=68 v=0
3079 On ch=1 n=66 v=70
3119 Off ch=1 n=66 v=0
3119 On ch=1 n=65 v=71
3179 Off ch=1 n=65 v=0
3179 On ch=1 n=66 v=72
3239 Off ch=1 n=66 v=0
3239 On ch=1 n=68 v=74
3329 Off ch=1 n=68 v=0
3329 On ch=1 n=62 v=76
3359 Off ch=1 n=62 v=0
3359 On ch=1 n=61 v=76
3404 Off ch=1 n=61 v=0